<svg xmlns="http://www.w3.org/2000/svg" viewBox="0 0 24 24" fill="currentColor" width="24px" height="24px">
  <path d="M19.43 12.98l1.86-2.6-1.45-1.45-2.6 1.86-.93-1.69c.08-.31.13-.64.13-.98s-.05-.67-.13-.98l.93-1.69 2.6 1.86 1.45-1.45-1.86-2.6c.35-.5.55-1.1.55-1.73s-.2-1.23-.55-1.73L18 1.57 16.55 3.43l-2.6-1.86c-.5-.35-1.1-.55-1.73-.55s-1.23.2-1.73.55L9.57 3.43 8 1.57 6.57 3.43l-2.6-1.86c-.5-.35-1.1-.55-1.73-.55s-1.23.2-1.73.55L1.57 6 3.43 7.55l-1.86 2.6c-.35.5-.55 1.1-.55 1.73s.2 1.23.55 1.73L3.43 15l-1.86 2.6L3.43 18l2.6-1.86c.5.35 1.1.55 1.73.55s1.23-.2 1.73-.55L15 18l1.45 1.45 2.6-1.86c.5.35 1.1.55 1.73.55s1.23-.2 1.73-.55l1.86 2.6L19.43 18l-2.6-1.86c.35-.5.55-1.1.55-1.73s-.2-1.23-.55-1.73zM12 15c-1.66 0-3-1.34-3-3s1.34-3 3-3 3 1.34 3 3-1.34 3-3 3z"/>
</svg>